<?xml version="1.0" ?><!DOCTYPE svg  PUBLIC '-//W3C//DTD SVG 1.1//EN'  'http://www.w3.org/Graphics/SVG/1.1/DTD/svg11.dtd'><svg height="78px" id="Layer_1" style="enable-background:new 0 0 78 78;" version="1.1" viewBox="0 0 78 78" width="78px" xml:space="preserve" xmlns="http://www.w3.org/2000/svg" xmlns:xlink="http://www.w3.org/1999/xlink"><g><path d="M39,0C17.494,0,0,17.495,0,39s17.494,39,39,39c21.505,0,39-17.495,39-39S60.505,0,39,0z    M65.141,42.418c-7.569,2.999-15.826,3.826-23.762,2.475c-7.307-1.258-14.342-4.331-20.281-9.183   c1.97-5.055,5.486-8.88,10.317-11.269c3.126-1.54,6.544-2.372,9.964-2.471c3.773-0.137,7.585,0.62,11.053,2.224   c-1.693-1.73-4.525-2.956-6.759-3.761c-1.343-0.579-2.804-0.959-4.294-1.177c-1.666-0.275-3.35-0.343-4.966-0.275   c-6.329,0.248-12.288,3.012-16.679,7.537l0.012,0.009c-3.723,3.912-6.076,8.982-6.594,14.404v0.018   c-0.117,0.806-0.696,1.484-1.48,1.704c-0.5,0.109-1.008,0.083-1.449-0.162c-0.873-0.419-1.131-1.284-1.188-2.212H9.032   C9.015,39.854,9,39.429,9,39C9,22.46,22.457,9,39,9c3.059,0,6.012,0.463,8.795,1.318C58.241,15.012,65.52,25.493,65.52,37.689   C65.52,39.3,65.386,40.877,65.141,42.418z" style="fill:#76BD1C;"/><path d="M47.736,10.289c10.478,4.68,17.783,15.181,17.783,27.4c0,1.61-0.134,3.188-0.379,4.729   c-7.569,2.999-15.826,3.826-23.762,2.475c-7.307-1.258-14.342-4.331-20.281-9.183c1.97-5.055,5.486-8.88,10.317-11.269   c3.126-1.54,6.544-2.372,9.964-2.471c3.773-0.137,7.585,0.62,11.053,2.224c-1.693-1.73-4.525-2.956-6.759-3.761   c-1.343-0.579-2.804-0.959-4.294-1.177c-1.666-0.275-3.35-0.343-4.966-0.275c-6.329,0.248-12.288,3.012-16.679,7.537l0.012,0.009   c-3.723,3.912-6.076,8.982-6.594,14.404v0.018c-0.117,0.806-0.696,1.484-1.48,1.704c-0.5,0.109-1.008,0.083-1.449-0.162   c-0.873-0.419-1.131-1.284-1.188-2.212c-0.002,0-0.004-0.001-0.007-0.001C9.71,56.182,22.756,68.879,38.807,68.98v0.008   c0.064,0.002,0.129,0.005,0.193,0.005c16.568,0,30-13.43,30-30C69,25.464,60.042,14.031,47.736,10.289z" style="fill:#76BD1C;"/></g></svg>